{
    "asset" : {
        "generator" : "Khronos glTF Blender I/O v1.6.16",
        "version" : "2.0"
    },
    "scene" : 0,
    "scenes" : [
        {
            "name" : "Scene",
            "nodes" : [
                0
            ]
        }
    ],
    "nodes" : [
        {
            "mesh" : 0,
            "name" : "bun_zipper_res2"
        }
    ],
    "meshes" : [
        {
            "name" : "bun_zipper_res2",
            "primitives" : [
                {
                    "attributes" : {
                        "POSITION" : 0,
                        "NORMAL" : 1
                    },
                    "indices" : 2
                }
            ]
        }
    ],
    "accessors" : [
        {
            "bufferView" : 0,
            "componentType" : 5126,
            "count" : 8146,
            "max" : [
                0.5122315883636475,
                0.9650566577911377,
                0.28859543800354004
            ],
            "min" : [
                -0.46679508686065674,
                -0.004171762149780989,
                -0.45822015404701233
            ],
            "type" : "VEC3"
        },
        {
            "bufferView" : 1,
            "componentType" : 5126,
            "count" : 8146,
            "type" : "VEC3"
        },
        {
            "bufferView" : 2,
            "componentType" : 5123,
            "count" : 48642,
            "type" : "SCALAR"
        }
    ],
    "bufferViews" : [
        {
            "buffer" : 0,
            "byteLength" : 97752,
            "byteOffset" : 0
        },
        {
            "buffer" : 0,
            "byteLength" : 97752,
            "byteOffset" : 97752
        },
        {
            "buffer" : 0,
            "byteLength" : 97284,
            "byteOffset" : 195504
        }
    ],
    "buffers" : [
        {
            "byteLength" : 292788,
            "uri" : "data:application/octet-stream;base64,"
        }
    ]
}
